PathFileType	4	(X/Y/Z)	s01c0103.trc
DataRate	CameraRate	NumFrames	NumMarkers	Units	OrigDataRate	OrigDataStartFrame	OrigNumFrames
200	200	4	48	mm	200	500	2000
Frame#	Time	racr			lacr			c7			jug			rlel			rdr			llel			ldr			s2			lic			ric			lasi			rasi			rpsi			lpsi			rgt			lgt			rth1			rth2			rth3			rth4			rlfc			rsh1			rsh2			rsh3			rsh4			rlmal			rmmal			rcal			rtoe			rmt5			lth1			lth2			lth4			lth3			llfc			lsh1			lsh2			lsh3			lsh4			llmal			lmmal			lcal			ltoe			lmt5			SBIKE			LBIKE			RBIKE			
		X1	Y1	Z1	X2	Y2	Z2	X3	Y3	Z3	X4	Y4	Z4	X5	Y5	Z5	X6	Y6	Z6	X7	Y7	Z7	X8	Y8	Z8	X9	Y9	Z9	X10	Y10	Z10	X11	Y11	Z11	X12	Y12	Z12	X13	Y13	Z13	X14	Y14	Z14	X15	Y15	Z15	X16	Y16	Z16	X17	Y17	Z17	X18	Y18	Z18	X19	Y19	Z19	X20	Y20	Z20	X21	Y21	Z21	X22	Y22	Z22	X23	Y23	Z23	X24	Y24	Z24	X25	Y25	Z25	X26	Y26	Z26	X27	Y27	Z27	X28	Y28	Z28	X29	Y29	Z29	X30	Y30	Z30	X31	Y31	Z31	X32	Y32	Z32	X33	Y33	Z33	X34	Y34	Z34	X35	Y35	Z35	X36	Y36	Z36	X37	Y37	Z37	X38	Y38	Z38	X39	Y39	Z39	X40	Y40	Z40	X41	Y41	Z41	X42	Y42	Z42	X43	Y43	Z43	X44	Y44	Z44	X45	Y45	Z45	X46	Y46	Z46	X47	Y47	Z47	X48	Y48	Z48	
500	2.5000	498.924737	1324.683925	-125.626228	478.666053	1306.192820	-421.733228	439.360816	1395.765889	-267.500622	440.500956	1231.690133	-267.420800	574.647452	1064.208468	-24.145745	738.514932	858.253837	-85.547376	532.791632	1047.669154	-535.295332	714.021742	874.355485	-456.134389	0.000000	0.000000	-0.000000	59.092477	1193.616549	-411.029821	91.008404	1164.462739	-77.825801	73.027474	1136.888397	-384.146551	116.521766	1121.133695	-109.649212	-48.528356	1199.003440	-161.510869	-65.659377	1209.323294	-266.276456	41.698745	1040.719153	-50.972894	24.700597	1080.228737	-434.437142	112.914789	930.887939	-38.818030	164.927842	865.631347	-44.467608	214.716654	791.582314	-61.736053	208.816514	897.761176	-59.932955	255.009587	685.029180	-84.642798	237.679132	568.224211	-52.518397	239.168861	483.755420	-59.632746	232.430860	395.760622	-71.871007	287.004433	485.536438	-97.621121	212.698504	278.689805	-98.712531	253.212600	295.814207	-171.111937	166.972987	268.934389	-148.687806	418.981001	165.844243	-145.414281	313.377550	168.231169	-71.991260	123.203834	1015.586433	-452.566111	211.071584	1006.341679	-465.366701	220.183966	1057.350518	-448.680817	294.507049	985.534130	-461.753227	390.620451	907.798651	-453.780869	294.701847	846.361016	-471.335003	239.937028	780.766410	-457.245609	184.162484	717.841906	-437.145688	286.611918	747.290579	-433.028032	106.500366	624.814059	-413.365602	141.007500	619.801855	-333.100772	50.523524	613.705321	-365.830779	274.186548	452.175781	-383.489365	171.814596	491.833123	-444.501230	-229.236622	890.812897	-252.743434	-23.033603	81.081675	-456.075039	-22.487134	80.072393	-55.884417	
501	2.5050	499.320213	1323.483949	-124.607268	477.769154	1307.417320	-421.046769	439.574972	1395.787259	-266.166794	440.832563	1231.958392	-266.815646	575.761650	1062.798112	-23.119722	738.889121	857.774097	-84.987168	530.090162	1048.850177	-534.610957	712.981671	876.177401	-456.201141	0.000000	0.000000	-0.000000	58.968819	1195.070449	-409.542992	90.568663	1164.760415	-76.660300	73.074939	1138.158630	-382.966151	115.914545	1120.955968	-107.966656	-48.686487	1199.216252	-160.310546	-65.760430	1210.252814	-264.898363	40.075645	1040.448513	-50.288684	24.787911	1083.051408	-433.648311	110.253498	929.945885	-37.756653	161.451467	864.007432	-42.998920	210.588549	789.274328	-59.892593	205.901787	895.631953	-58.102931	249.424140	682.563783	-83.017519	231.869502	566.134379	-51.234102	233.293399	481.619534	-58.358055	226.534522	393.591111	-70.723387	281.376709	483.367222	-96.100795	207.155082	277.013024	-97.662312	245.539889	292.738430	-170.763316	161.419114	268.410959	-147.793216	410.919792	159.454369	-145.510537	305.597174	164.235705	-71.726068	123.568754	1019.865101	-451.951398	211.693083	1011.929942	-464.288479	220.068907	1062.922734	-446.767417	295.366842	992.105951	-460.197830	392.991604	915.180408	-452.462169	297.801389	852.703758	-469.949185	243.677257	786.338963	-456.119995	189.011990	722.660437	-436.486627	290.841949	753.239682	-432.385800	112.529807	628.036533	-412.892080	147.162042	623.414492	-332.630880	56.467353	615.583495	-365.631454	282.940453	458.316371	-383.620648	179.852334	496.208899	-444.440737	-229.254519	890.855396	-252.660550	-23.029084	81.131800	-456.009666	-22.490902	80.098880	-55.844140	
502	2.5100	499.405538	1322.491920	-123.370240	476.966707	1308.545586	-420.426961	439.639740	1395.721913	-264.974809	441.050060	1232.152744	-266.253369	576.440906	1061.566426	-21.960735	738.933197	857.338720	-84.496397	526.898722	1049.751665	-533.975780	711.977428	877.835777	-456.457617	0.000000	0.000000	-0.000000	59.320251	1196.512530	-408.465060	90.039515	1164.958598	-75.470314	72.966261	1139.445132	-381.794813	115.344463	1120.826072	-106.298676	-48.882901	1199.511574	-159.223287	-65.964297	1211.229685	-263.583709	38.481112	1040.216885	-49.559926	24.766363	1085.817329	-432.783454	107.701983	929.033346	-36.722966	158.054448	862.507830	-41.862075	206.617183	787.362190	-58.089175	203.189578	893.767717	-56.294320	244.521521	680.494062	-81.736302	226.405193	564.292472	-50.186405	227.597093	479.846987	-57.236333	220.555010	391.870144	-69.738218	275.915175	481.386404	-94.700694	201.431481	275.554178	-96.816648	238.004121	290.154596	-170.433442	155.742588	268.460984	-147.070016	402.569024	153.544058	-145.512297	297.631097	160.689785	-71.423059	123.779000	1023.895567	-451.121988	212.111339	1017.414591	-463.326148	219.785690	1067.881176	-444.106995	295.948723	998.127186	-458.497848	395.133354	922.083760	-451.069928	300.850439	858.666308	-468.563805	247.561478	791.479626	-455.138209	193.692416	726.943703	-435.701575	295.262420	758.832534	-431.736248	118.693733	630.577951	-412.452358	152.666064	626.059915	-332.078904	62.469783	616.778435	-365.476347	291.954273	463.901811	-383.593510	188.171959	500.079787	-444.302962	-229.224595	890.889045	-252.583932	-23.019609	81.200443	-455.962815	-22.483934	80.084893	-55.809319	
503	2.5150	499.211597	1321.747457	-122.070186	476.309547	1309.531214	-419.850602	439.573034	1395.562756	-263.901128	441.159817	1232.276129	-265.733061	576.654575	1060.383238	-20.798169	738.859422	857.123171	-84.194654	523.603419	1050.176189	-533.281853	711.082901	879.050651	-456.591572	0.000000	0.000000	-0.000000	59.179671	1197.952960	-407.206842	89.532633	1165.121177	-74.326157	72.673970	1140.672351	-380.569338	114.632584	1120.656490	-104.781551	-49.166903	1199.874918	-158.132972	-66.277552	1212.255616	-262.320162	36.957068	1040.042922	-48.913448	24.633527	1088.400767	-431.967145	105.232549	928.165135	-35.861994	155.037163	861.219854	-40.642446	202.993853	785.540084	-56.266490	200.549499	892.163571	-54.589602	240.124695	678.669012	-80.749713	221.358719	562.919299	-49.370886	222.172452	478.492362	-56.365378	214.699541	390.484750	-68.920879	270.708251	479.756931	-93.547040	195.406495	274.709158	-96.027447	230.700330	288.098555	-170.113697	149.901981	268.697144	-146.439383	393.946817	148.063564	-145.499295	289.261848	157.669570	-71.182932	123.896213	1027.705619	-450.138480	212.341751	1022.304129	-461.699248	219.319329	1072.509321	-441.381761	296.330180	1003.808004	-456.576160	396.960841	928.684271	-449.483061	303.806677	863.988714	-467.148005	251.427946	796.029983	-454.135082	198.270179	730.755524	-435.060740	299.581420	763.985633	-430.998969	124.860209	632.612058	-412.061208	160.845554	628.274907	-332.686677	68.492401	617.250817	-365.379745	301.327039	469.001666	-383.465680	196.592305	503.369888	-444.243630	-229.220304	890.907302	-252.433605	-23.021834	81.236043	-455.917504	-22.474510	80.095159	-55.762917	
